<?xml version="1.0" encoding="utf-8"?>
<!-- Generator: Adobe Illustrator 27.5.0, SVG Export Plug-In . SVG Version: 6.00 Build 0)  -->
<svg version="1.1" xmlns="http://www.w3.org/2000/svg" xmlns:xlink="http://www.w3.org/1999/xlink" x="0px" y="0px"
	 viewBox="0 0 500 500" style="enable-background:new 0 0 500 500;" xml:space="preserve">
<g id="BACKGROUND">
	<rect style="fill:#FFFFFF;" width="500" height="500"/>
</g>
<g id="OBJECTS">
	<g style="opacity:0.46;">
		<path style="fill:#D1C7FF;" d="M381.824,113.288c41.823,48.573,62.467,118.43,35.828,190.107
			c-6.667,17.938-19.374,34.287-35.41,40.664c-19.496,7.753-39.365-0.091-58.884-3.206c-61.306-9.784-125.312,28.131-188.207,29.843
			c-25.547,0.696-51.516-5.14-70.449-22.548c-23.259-21.384-32.984-58.392-29.366-94.317c5.613-55.73,40.512-108.145,78.251-145.248
			c35.471-34.874,80.263-57.235,124.979-60.716C290.834,43.799,344.681,70.151,381.824,113.288z"/>
	</g>
	<path style="fill:#373C7A;" d="M190,205l9,3l1.1,25.553L200.015,235H214c0,0-3.625-36.819-4-38c0,0-20.816-4.784-21.175-5.166
		c-0.03,0.035-7.115-2.993-7.859-2.01c-1.161,1.535-10.805,28.848-15.534,45.176H179L190,205z"/>
	<g style="opacity:0.1;">
		<ellipse cx="269.178" cy="405.925" rx="221.193" ry="14.743"/>
	</g>
	<g>
		<g>
			<g>
				<g>
					<path style="fill:#FFFFFF;" d="M337.308,161.347c-1.953,0-3.853,0.222-5.684,0.631c-5.504-13.89-19.058-23.714-34.907-23.714
						s-29.403,9.824-34.907,23.714c-1.83-0.408-3.73-0.631-5.684-0.631c-14.356,0-25.993,11.637-25.993,25.993
						c0,0.815,0.042,1.62,0.116,2.416c-0.074,0.064-0.116,0.129-0.116,0.194c0,1.831,29.781,3.315,66.519,3.315
						c36.737,0,66.519-1.484,66.519-3.315c0.086-0.858,0.131-1.729,0.131-2.61C363.301,172.985,351.663,161.347,337.308,161.347z"/>
				</g>
			</g>
		</g>
		<g>
			<g>
				<g>
					<path style="fill:#FFFFFF;" d="M116.804,194.817c-1.953,0-3.854,0.222-5.684,0.631c-5.504-13.89-19.058-23.714-34.907-23.714
						s-29.403,9.824-34.907,23.714c-1.83-0.409-3.73-0.631-5.684-0.631c-14.356,0-25.993,11.637-25.993,25.993
						c0,0.815,0.042,1.62,0.116,2.416c-0.074,0.064-0.116,0.129-0.116,0.194c0,1.831,29.781,3.315,66.519,3.315
						c36.737,0,66.519-1.484,66.519-3.315c0.085-0.858,0.13-1.729,0.13-2.61C142.797,206.454,131.16,194.817,116.804,194.817z"/>
				</g>
			</g>
		</g>
		<g>
			<g>
				<g>
					<path style="fill:#FFFFFF;" d="M449.434,216.778c-1.953,0-3.853,0.222-5.684,0.631c-5.504-13.89-19.058-23.714-34.907-23.714
						c-15.849,0-29.403,9.823-34.907,23.714c-1.83-0.408-3.73-0.631-5.684-0.631c-14.356,0-25.993,11.637-25.993,25.993
						c0,0.815,0.043,1.62,0.116,2.416c-0.074,0.064-0.116,0.129-0.116,0.194c0,1.831,29.781,3.315,66.519,3.315
						c36.737,0,66.519-1.484,66.519-3.315c0.086-0.858,0.131-1.729,0.131-2.61C475.427,228.415,463.79,216.778,449.434,216.778z"/>
				</g>
			</g>
		</g>
		<g>
			<g>
				<g>
					<path style="fill:#FFFFFF;" d="M206.434,81.778c-1.953,0-3.854,0.222-5.684,0.631c-5.504-13.89-19.058-23.714-34.907-23.714
						s-29.403,9.824-34.907,23.714c-1.83-0.409-3.73-0.631-5.684-0.631c-14.356,0-25.993,11.637-25.993,25.993
						c0,0.815,0.043,1.62,0.116,2.416c-0.074,0.064-0.116,0.129-0.116,0.194c0,1.831,29.781,3.315,66.519,3.315
						c36.737,0,66.519-1.484,66.519-3.315c0.086-0.858,0.131-1.729,0.131-2.61C232.427,93.415,220.79,81.778,206.434,81.778z"/>
				</g>
			</g>
		</g>
	</g>
	<g>
		<g>
			<g>
				<g>
					<g>
						<g>
							<path style="fill:#D5D1DE;" d="M110.153,409.101h240.739l-31.946-182.442H58.958L87.584,390.14
								C89.503,401.103,99.023,409.101,110.153,409.101z"/>
						</g>
					</g>
				</g>
			</g>
			<g>
				<polygon style="fill:#8A91E6;" points="58.958,226.659 88.36,394.534 94.591,394.534 65.189,226.659 				"/>
			</g>
		</g>
		<g>
			<path style="fill:#D5D1DE;" d="M454.378,409.101H108.116c-9.952,0-18.464-7.151-20.181-16.954l-1.313-7.5H465.91v12.922
				C465.91,403.938,460.747,409.101,454.378,409.101z"/>
		</g>
		<g>
			<path style="fill:#8A91E6;" d="M221.173,397.569v-12.922H86.622l2.283,13.036c1.156,6.602,6.889,11.418,13.591,11.418h130.209
				C226.336,409.101,221.173,403.938,221.173,397.569z"/>
		</g>
		<g>
			<polygon style="fill:#8A91E6;" points="87.288,388.454 465.91,388.454 465.91,384.647 86.622,384.647 			"/>
		</g>
		<g>
			<polygon style="fill:#7B8DFF;" points="336.622,375.992 311.973,235.224 76.385,235.224 101.033,375.992 			"/>
		</g>
		<g>
			<path style="fill:#7E72AC;" d="M198.378,231.551l-0.18-1.028c-0.114-0.652-0.68-1.127-1.342-1.127h-3.515
				c-0.846,0-1.488,0.764-1.342,1.597l0.18,1.028c0.114,0.652,0.68,1.127,1.342,1.127h3.515
				C197.882,233.148,198.523,232.385,198.378,231.551z"/>
		</g>
		<g>
			<polygon style="fill:#7E72AC;" points="128.47,394.534 112.438,394.534 113.258,399.213 129.289,399.213 			"/>
		</g>
		<g>
			<polygon style="fill:#7E72AC;" points="150.668,394.534 134.636,394.534 135.456,399.213 151.487,399.213 			"/>
		</g>
		<g>
			<g>
				<polygon style="fill:#310047;" points="336.768,372 108.529,372 86.79,246.382 315.028,246.382 				"/>
			</g>
			<g>
				<polygon style="fill:#2A2E5E;" points="316.022,252.02 79.175,252.02 76.213,235.224 313.061,235.224 				"/>
			</g>
			<g>
				<polygon style="fill:#39ACCC;" points="330.335,345.861 294.607,345.861 280,263.02 315.728,263.02 				"/>
			</g>
			<g>
				<g>
					<path style="fill:#8A91E6;" d="M309.625,246.865c-0.118,0-0.237-0.04-0.335-0.123l-5.439-4.624
						c-0.217-0.185-0.243-0.511-0.059-0.728c0.185-0.216,0.51-0.244,0.728-0.059l5.44,4.624c0.217,0.185,0.243,0.511,0.059,0.728
						C309.916,246.803,309.771,246.865,309.625,246.865z"/>
				</g>
				<g>
					<path style="fill:#8A91E6;" d="M305.001,246.865c-0.116,0-0.232-0.038-0.328-0.118c-0.221-0.182-0.252-0.507-0.07-0.728
						l3.809-4.624c0.182-0.222,0.509-0.251,0.727-0.07c0.221,0.182,0.252,0.507,0.07,0.727l-3.809,4.624
						C305.298,246.801,305.149,246.865,305.001,246.865z"/>
				</g>
			</g>
			<g>
				<g>
					<g>
						<polygon style="fill:#2A2E5E;" points="137.489,266.552 108.784,266.552 108.112,262.744 136.818,262.744 						"/>
					</g>
					<g>
						<polygon style="fill:#FFA800;" points="140.005,280.821 111.3,280.821 108.614,265.59 137.319,265.59 						"/>
					</g>
				</g>
				<g>
					<g>
						<polygon style="fill:#2A2E5E;" points="140.677,284.629 111.971,284.629 111.3,280.821 140.005,280.821 						"/>
					</g>
					<g>
						<polygon style="fill:#FFA800;" points="143.193,298.898 114.487,298.898 111.802,283.667 140.507,283.667 						"/>
					</g>
				</g>
			</g>
			<g>
				<path style="fill:#8A91E6;" d="M299.894,246.898h-4.691c-0.251,0-0.465-0.18-0.509-0.427l-0.827-4.69
					c-0.026-0.15,0.015-0.305,0.113-0.422c0.098-0.117,0.243-0.185,0.396-0.185h4.691c0.251,0,0.465,0.18,0.509,0.427l0.827,4.69
					c0.026,0.15-0.015,0.305-0.113,0.422C300.191,246.831,300.046,246.898,299.894,246.898z M295.636,245.865h3.643l-0.646-3.657
					h-3.643L295.636,245.865z"/>
			</g>
			<g>
				<polygon style="fill:#2A2E5E;" points="337.472,375.992 100.624,375.992 99.216,368.009 336.064,368.009 				"/>
			</g>
			<g>
				<polygon style="fill:#2A2E5E;" points="110.4,368.009 99.216,368.009 79.175,252.02 90.359,252.02 				"/>
			</g>
			<g>
				<polygon style="fill:#2A2E5E;" points="318.705,279.906 282.977,279.906 282.427,276.787 318.155,276.787 				"/>
			</g>
			<g>
				<polygon style="fill:#2A2E5E;" points="321.683,296.792 285.955,296.792 285.405,293.673 321.133,293.673 				"/>
			</g>
			<g>
				<polygon style="fill:#2A2E5E;" points="324.66,313.678 288.932,313.678 288.382,310.559 324.11,310.559 				"/>
			</g>
			<g>
				<polygon style="fill:#2A2E5E;" points="327.638,330.564 291.91,330.564 291.36,327.445 327.088,327.445 				"/>
			</g>
			<g>
				<polygon style="fill:#FFFFFF;" points="291.071,350.286 155.694,350.286 140.258,262.741 275.634,262.741 				"/>
			</g>
		</g>
	</g>
	<g>
		<g>
			<g>
				<g>
					<g>
						<polygon style="fill:#D5D1DE;" points="125.477,378.378 120.7,377.437 126.005,366.077 130.083,368.382 						"/>
					</g>
				</g>
				<g>
					<g>
						<g>
							<path style="fill:#2A2E5E;" d="M138.706,384.366c-0.04-1.422-0.581-5.554-3.576-5.554l-4.975-0.071l-1.051-3.552
								c-0.357-1.175-1.552-1.291-1.799-0.776c-0.851,1.772-1.088,2.586-2.113,2.639l-3.806-0.05c-1.662,0-1.565,0.971-1.579,2.196
								c0,0-0.043,4.17-0.036,5.169H138.706z"/>
						</g>
					</g>
					<g>
						<g>
							<path style="fill:#373C7A;" d="M133.525,384.366h5.181c-0.04-1.422-0.581-5.554-3.576-5.554l-1.605-0.023V384.366z"/>
						</g>
					</g>
					<g>
						<g>
							<polygon style="fill:#373C7A;" points="138.808,385.647 119.863,385.647 119.77,384.287 138.716,384.287 							"/>
						</g>
					</g>
				</g>
			</g>
		</g>
		<g>
			<g>
				<path style="fill:#2A2E5E;" d="M121.31,370.062l8.774,2.166c26.689-50.58-11.598-40.595-37.774-19.108
					c2.628,2.375,5.252,4.753,7.883,7.125c9.886-9.023,25.008-17.361,29.299-14.279C132.066,347.814,128.379,356.431,121.31,370.062
					z"/>
			</g>
		</g>
		<g>
			<path style="fill:#FE9B88;" d="M112.84,341.565c-1.512,0-2.993-0.267-4.413-0.855c-6.677-2.77-9.76-11.584-9.165-26.197
				c0.054-1.314,1.164-2.333,2.476-2.283c1.314,0.054,2.336,1.163,2.283,2.477c-0.491,12.061,1.722,19.733,6.231,21.604
				c4.34,1.799,11.552-1.64,17.945-8.563c0.893-0.966,2.399-1.026,3.365-0.133c0.966,0.893,1.026,2.398,0.134,3.365
				C126.605,336.49,119.435,341.565,112.84,341.565z"/>
		</g>
		<g>
			<g>
				<g>
					<polygon style="fill:#D5D1DE;" points="78.251,336.727 78.1,312.211 154.968,312.264 155.119,336.78 					"/>
				</g>
				<g>
					
						<rect x="55.261" y="307.544" transform="matrix(0.0062 1 -1 0.0062 391.6303 255.0129)" style="fill:#D5D1DE;" width="24.516" height="33.982"/>
				</g>
				<g>
					<polygon style="fill:#8A91E6;" points="178.459,323.365 154.968,312.264 155.119,336.78 178.459,326.708 					"/>
				</g>
				<g>
					<path style="fill:#D5D1DE;" d="M154.275,312.357L154.275,312.357c4.992-0.031,5.142,24.273,0.15,24.304l0,0
						C149.433,336.692,149.283,312.388,154.275,312.357z"/>
				</g>
				<g>
					<path style="fill:#7E72AC;" d="M174.825,321.648c0.303,2.685,0.314,3.887,0.066,6.6l4.632-1.685
						c1.169-0.644,1.201-2.313,0.058-3.001L174.825,321.648z"/>
				</g>
				<g>
					<path style="fill:#8A91E6;" d="M50.452,312.382L50.452,312.382c4.992-0.031,5.143,24.485,0.151,24.516l0,0
						C45.612,336.928,45.461,312.413,50.452,312.382z"/>
				</g>
				<g>
					<g>
						<path style="fill:#7E72AC;" d="M126.03,315.671h-11.258c-0.987,0-1.788,0.8-1.788,1.788c0,0.987,0.8,1.788,1.788,1.788h11.258
							V315.671z"/>
					</g>
					<g>
						<path style="fill:#7E72AC;" d="M139.674,315.671h-11.295v3.575h11.295c0.987,0,1.788-0.8,1.788-1.788
							C141.462,316.471,140.661,315.671,139.674,315.671z"/>
					</g>
				</g>
				<g>
					<g>
						<path style="fill:#8A91E6;" d="M126.03,314.441h-11.258c-0.987,0-1.788,0.8-1.788,1.788c0,0.987,0.8,1.788,1.788,1.788h11.258
							V314.441z"/>
					</g>
					<g>
						<path style="fill:#8A91E6;" d="M139.674,314.441h-11.295v3.575h11.295c0.987,0,1.788-0.8,1.788-1.788
							C141.462,315.242,140.661,314.441,139.674,314.441z"/>
					</g>
				</g>
				<g>
					<path style="fill:#7E72AC;" d="M50.5,320.145L50.5,320.145c1.83-0.011,1.886,8.978,0.056,8.989l0,0
						C48.725,329.146,48.67,320.156,50.5,320.145z"/>
				</g>
				<g style="opacity:0.05;">
					<path d="M180.357,325.502c0.19-0.704-0.065-1.512-0.777-1.941l-4.755-1.914l-19.858-9.383l0.001,0.256l-0.002-0.256
						l-70.533-0.049l0-0.043l-6.333,0.039H78.1l-27.647,0.171c-2.61,0.016-3.813,6.725-3.654,13.12H180.357z"/>
				</g>
			</g>
		</g>
		<g style="opacity:0.1;">
			<path d="M49.586,438.449c0,2.846,18.692,5.154,41.749,5.154c23.058,0,41.749-2.307,41.749-5.154
				c0-2.846-18.692-5.154-41.749-5.154C68.278,433.296,49.586,435.603,49.586,438.449z"/>
		</g>
		<g>
			<g>
				<g>
					<g>
						<path style="fill:#363A68;" d="M83.834,431.402H77.76v-4.051c0-0.857,0.694-1.551,1.551-1.551h2.973
							c0.856,0,1.551,0.694,1.551,1.551V431.402z"/>
					</g>
				</g>
			</g>
			<g>
				<g>
					<g>
						<rect x="76.859" y="418.641" style="fill:#D5D1DE;" width="5.197" height="11.162"/>
					</g>
				</g>
			</g>
			<g>
				<g>
					<path style="fill:#2A2E5E;" d="M85.233,435.75h-9.699v-4.5c0-0.799,0.648-1.447,1.447-1.447h5.229
						c1.67,0,3.023,1.353,3.023,3.023V435.75z"/>
				</g>
			</g>
			<g>
				<g>
					<polygon style="fill:#373C7A;" points="75.534,435.75 85.233,435.75 85.326,437.469 75.626,437.469 					"/>
				</g>
			</g>
		</g>
		<g>
			<g>
				<path style="fill:#2A2E5E;" d="M82.952,424.222c-2.885-0.002-4.466,0-7.352,0l-1.168-71.756c2.885-0.002,7.187-0.001,10.073,0
					L82.952,424.222z"/>
			</g>
		</g>
		<g>
			<path style="fill:#2A2E5E;" d="M75.24,360.413c6.469,2.183,27.07,0.125,27.148,0.099l0.834-12.567
				c-0.002-0.001-23.694-5.579-29.403-0.57C71.877,349.079,72.668,359.545,75.24,360.413z"/>
		</g>
		<g>
			<path style="fill:#8A91E6;" d="M103.222,347.945l-29.403-0.57l-1.151-36.792c0-6.281,5.092-11.373,11.373-11.373h10.185
				c6.281,0,10.447,4.166,10.447,10.447L103.222,347.945z"/>
		</g>
		<g>
			<path style="fill:#FE9B88;" d="M111.552,341.475c-0.102,0-0.205-0.007-0.309-0.021c-1.726-0.224-3.314-0.82-4.722-1.773
				c-1.572-1.065-2.912-2.572-3.983-4.479c-2.548-4.532-3.651-11.494-3.276-20.69c0.054-1.314,1.144-2.333,2.477-2.283
				c1.314,0.054,2.336,1.163,2.282,2.477c-0.338,8.3,0.56,14.411,2.669,18.163c0.707,1.258,1.548,2.223,2.502,2.869
				c0.796,0.54,1.668,0.864,2.663,0.994c1.305,0.169,2.225,1.363,2.056,2.668C113.755,340.6,112.73,341.475,111.552,341.475z"/>
		</g>
		<g>
			<path style="fill:#8A91E6;" d="M105.047,321.16c0,0-6.452,0.273-9.824-0.036c-1.194-3.21-1.192-6.926-0.354-10.247
				c0.838-3.32,2.706-6.374,5.28-8.632C100.894,301.591,106.371,315.755,105.047,321.16z"/>
		</g>
		<g>
			<g>
				<path style="fill:#FE8D77;" d="M97.832,288.662h-1.136v-5.247h1.495l1.112,3.056c0.357,0.982-0.279,2.09-1.32,2.184
					C97.933,288.659,97.883,288.662,97.832,288.662z"/>
			</g>
			<g>
				<path style="fill:#FE9B88;" d="M93.587,297.631c-0.001,0-5.614,0-5.614,0v-19.438c0,0,10.089,0,10.216,0
					c0.174,0,0.261,13.358,0.261,13.358C98.451,296.031,96.452,297.631,93.587,297.631z"/>
			</g>
			<g>
				<path style="fill:#310047;" d="M98.413,282.266H97.94c-0.172,0-0.311-0.139-0.311-0.311l0,0c0-0.172,0.139-0.311,0.311-0.311
					h0.473c0.172,0,0.311,0.139,0.311,0.311l0,0C98.724,282.127,98.585,282.266,98.413,282.266z"/>
			</g>
			<g>
				<path style="fill:#373C7A;" d="M96.023,269.463h-9.729c-0.209,0-0.414,0.016-0.616,0.04c-0.264-0.021-0.528-0.04-0.797-0.04l0,0
					c-5.568,0-10.082,4.514-10.082,10.082v24.013c0,5.568,4.514,10.082,10.082,10.082l0,0c5.568,0,10.082-4.514,10.082-10.082
					v-22.295c0-0.677,0.549-1.225,1.225-1.225l0,0c3.178,0,5.701-2.803,5.231-6.072C101.042,271.343,98.674,269.463,96.023,269.463z
					"/>
			</g>
		</g>
	</g>
	<g>
		<g>
			<g>
				<g>
					<g>
						
							<rect x="353.98" y="377.763" transform="matrix(0.0119 -0.9999 0.9999 0.0119 -31.0739 735.6208)" style="fill:#D5D1DE;" width="5.373" height="11.54"/>
					</g>
				</g>
				<g>
					<g>
						<g>
							<path style="fill:#373C7A;" d="M344.125,373.129c0.386,0.052,6.09-2.636,6.054,0.46l0.008,3.485l3.659,1.13
								c0.738,0.228,1.215,0.739,1.216,1.303l0.01,0.831c0,0.205-0.12,0.276-0.349,0.287c-1.926,0.109-2.85,0.273-2.847,1.302
								l0.002,4.233c-0.02,1.718-1.023,1.606-2.289,1.605c0,0-4.311-0.006-5.344-0.027L344.125,373.129z"/>
						</g>
					</g>
					<g>
						<path style="fill:#2A2E5E;" d="M344.326,387.742l0.169-14.22l5.684,0.067l-0.004-1.659c0.036-3.045-4.083-3.684-5.617-3.76
							l0-0.015l-1.501-0.018l-0.232,19.586L344.326,387.742z"/>
					</g>
				</g>
			</g>
		</g>
		<g>
			<g>
				<g>
					<g>
						
							<rect x="363.3" y="387.644" transform="matrix(-0.6137 -0.7895 0.7895 -0.6137 279.9777 923.814)" style="fill:#D5D1DE;" width="5.373" height="11.54"/>
					</g>
				</g>
				<g>
					<g>
						<g>
							<path style="fill:#373C7A;" d="M349.695,393.09c0.334-0.199,3.121-5.856,5.022-3.411l2.178,2.721l3.566-1.396
								c0.719-0.281,1.411-0.179,1.763,0.262l0.525,0.644c0.128,0.16,0.078,0.291-0.095,0.442c-1.439,1.285-2.059,1.989-1.416,2.792
								l2.639,3.31c1.054,1.357,0.201,1.894-0.79,2.682c0,0-3.376,2.681-4.196,3.309L349.695,393.09z"/>
						</g>
					</g>
					<g>
						<path style="fill:#2A2E5E;" d="M358.956,404.395l-8.727-11.228l4.488-3.489l-1.037-1.295
							c-1.869-2.404-5.489-0.338-6.736,0.558l-0.009-0.012l-1.185,0.921l12.021,15.465L358.956,404.395z"/>
					</g>
				</g>
			</g>
		</g>
		<g>
			<polygon style="fill:#373C7A;" points="431.901,382.249 460.258,382.249 461.245,367.835 432.238,372.24 			"/>
		</g>
		<g>
			<path style="fill:#373C7A;" d="M439.551,387.864c0.449,0.136-0.402-7.828,5.478-10.474
				c-36.999-26.816-33.151-27.155-73.528,5.275l6.883,8.278C414.855,362.043,403.735,364.989,439.551,387.864z"/>
		</g>
		<g>
			<path style="fill:#FE9B88;" d="M389.591,335.248c-0.854,0-1.685-0.446-2.14-1.241l-1.168-2.042
				c-0.676-1.181-0.267-2.685,0.913-3.36c1.179-0.676,2.684-0.267,3.36,0.913l1.17,2.046c0.675,1.181,0.265,2.684-0.916,3.359
				C390.426,335.143,390.006,335.248,389.591,335.248z"/>
		</g>
		<path style="fill:#2A2E5E;" d="M453.125,388H360v-10l103-2v2C463,383.454,458.579,388,453.125,388z"/>
		<path style="fill:#373C7A;" d="M415.464,358.512c-11.094-3.274-25.435,9.043-50.162,28.904l6.884,8.278
			c21.584-17.104,32.7-27.802,40.541-25.067L415.464,358.512z"/>
		<polygon style="fill:#2A2E5E;" points="463,379 433,381 433,366 463,366 		"/>
		<g>
			<path style="fill:#0E3266;" d="M449.354,339.549L449.354,339.549c-8.147,0.07-14.808-6.478-14.878-14.625l-0.18-21.074
				c-0.07-8.147,6.478-14.808,14.625-14.878l0,0c8.147-0.07,14.808,6.478,14.878,14.625l0.18,21.074
				C464.049,332.819,457.501,339.48,449.354,339.549z"/>
		</g>
		<g>
			<path style="fill:#FE8D77;" d="M424.044,343.871c-0.586,0-1.13-0.04-1.623-0.102c-9.324-1.167-17.158-11.49-18.625-20.4
				l4.699-0.773c1.161,7.052,7.616,15.585,14.518,16.448c6.177,0.78,10.184-5.225,12.442-10.394l4.363,1.908
				C434.934,341.733,428.355,343.871,424.044,343.871z"/>
		</g>
		<g>
			<path style="fill:#2A95AD;" d="M444.013,332.989c-1.366,4.587-3.245,6.659-6.841,9.818c-5.155-1.622-6.705-3.414-7.511-6.921
				c1.58-2.785,2.92-5.705,4-8.719C437.933,328.375,440.34,330.497,444.013,332.989z"/>
		</g>
		<g>
			<path style="fill:#39ACCC;" d="M466,372c0,0-16,4-33-3l-0.311-37.74c0.114-6.493,5.47-11.665,11.963-11.551l10.528,0.184
				c6.493,0.114,11.664,5.47,11.551,11.963L466,372z"/>
		</g>
		<g>
			<g>
				<path style="fill:#FE8D77;" d="M449.856,309.46l4.001,0.07l-0.215,12.284c-0.041,2.346-1.977,4.215-4.323,4.174l0,0
					c-2.346-0.041-4.215-1.977-4.174-4.323l0.105-5.996L449.856,309.46z"/>
			</g>
			<g>
				<g>
					<path style="fill:#FE8D77;" d="M437.552,303.037l0.129,5.784c-1.119-0.284-2.227-1.285-2.211-2.391l0.017-1.137
						C435.505,304.186,436.425,303.287,437.552,303.037z"/>
				</g>
				<g>
					<path style="fill:#FE9B88;" d="M437.516,311.179l-0.129-8.576c0.087-4.263,1.261-6.78,4.971-6.636l11.853,0.179l-0.025,14.026
						C453.998,320.905,437.728,321.036,437.516,311.179z"/>
				</g>
				<g>
					<g>
						<g>
							<g>
								<g>
									<g>
										<g>
											<g>
												<path style="fill:#082951;" d="M441.117,306.031c-0.007,0.465-0.39,0.837-0.855,0.83
													c-0.466-0.007-0.837-0.39-0.83-0.856c0.007-0.466,0.39-0.837,0.856-0.83
													C440.752,305.183,441.124,305.566,441.117,306.031z"/>
											</g>
										</g>
									</g>
								</g>
							</g>
						</g>
						<g>
							<g>
								<g>
									<g>
										<g>
											<path style="fill:#082951;" d="M447.763,306.132c-0.007,0.465-0.39,0.837-0.856,0.83c-0.465-0.007-0.837-0.39-0.83-0.856
												c0.007-0.465,0.39-0.837,0.855-0.83C447.398,305.283,447.77,305.666,447.763,306.132z"/>
										</g>
									</g>
								</g>
							</g>
						</g>
					</g>
				</g>
				<g>
					<path style="fill:#EFF4DF;" d="M448.319,309.141c-0.449,2.382-2.738,4.154-5.035,4.119s-3.829-1.864-4.206-4.259
						L448.319,309.141z"/>
				</g>
				<g>
					<path style="fill:#FE8D77;" d="M443.369,308.772c-0.002,0-0.003,0-0.005,0c-0.475-0.009-1.052-0.068-1.308-0.461
						c-0.313-0.478-0.028-1.156,0.442-2.279c0.112-0.268,0.234-0.56,0.362-0.882c0.061-0.149,0.228-0.22,0.38-0.163
						c0.149,0.06,0.223,0.229,0.163,0.38c-0.129,0.324-0.253,0.62-0.366,0.891c-0.341,0.813-0.636,1.516-0.492,1.734
						c0.044,0.068,0.212,0.186,0.828,0.196c0.161,0.003,0.29,0.136,0.287,0.297C443.658,308.646,443.528,308.772,443.369,308.772z"
						/>
				</g>
				<g>
					<path style="fill:#FE9B88;" d="M455.008,303.205l-0.903-0.014l-0.089,5.899l0.903,0.014c1.315,0.02,2.397-1.03,2.417-2.345
						l0.017-1.137C457.373,304.307,456.323,303.225,455.008,303.205z"/>
				</g>
				<g>
					<path style="fill:#0E3266;" d="M453.64,301.188l-8.372-0.44c-1.637-0.095-2.887-1.5-2.792-3.137l0,0
						c0.095-1.637,0.067-5.081,1.704-4.986l6.384,2.483c1.637,0.095,2.887,1.5,2.792,3.137l0,0
						C453.26,299.882,455.277,301.283,453.64,301.188z"/>
				</g>
				<g>
					<path style="fill:#0E3266;" d="M447.768,303.796c-0.005,0-0.011,0-0.017,0l-1.566-0.089c-0.161-0.01-0.284-0.147-0.275-0.309
						c0.01-0.16,0.122-0.278,0.309-0.275l1.566,0.089c0.161,0.01,0.284,0.147,0.275,0.309
						C448.051,303.676,447.922,303.796,447.768,303.796z"/>
				</g>
				<g>
					<path style="fill:#0E3266;" d="M440.899,303.559c-0.005,0-0.011,0-0.017,0l-1.566-0.088c-0.161-0.01-0.284-0.147-0.275-0.309
						c0.009-0.16,0.129-0.265,0.309-0.275l1.566,0.088c0.161,0.01,0.284,0.147,0.275,0.309
						C441.183,303.439,441.054,303.559,440.899,303.559z"/>
				</g>
				<g>
					<path style="fill:#0E3266;" d="M452.062,295.418l-0.134,8.884c-0.027,1.813,1.42,3.306,3.234,3.333l0,0
						c1.798,0.027,3.667,0.453,3.694-1.346l-0.303-7.489c0.027-1.813-1.421-3.305-3.234-3.333L452.062,295.418z"/>
				</g>
			</g>
		</g>
		<g>
			<path style="fill:#FE8D77;" d="M448.884,329.541L448.884,329.541c5.22,0.091,9.569-3.836,10.11-8.93
				c-1.194-0.435-2.474-0.693-3.815-0.717l-10.528-0.185c-1.97-0.034-3.832,0.424-5.478,1.251
				C439.853,325.738,443.906,329.454,448.884,329.541z"/>
		</g>
		<g>
			<g>
				
					<rect x="327.057" y="277.213" transform="matrix(0.9629 0.2697 -0.2697 0.9629 99.5973 -89.9153)" style="fill:#8A91E6;" width="99.891" height="80.532"/>
			</g>
			<g>
				<g>
					
						<rect x="332.874" y="283.792" transform="matrix(0.9629 0.2697 -0.2697 0.9629 99.5972 -89.9152)" style="fill:#FFFFFF;" width="88.257" height="67.375"/>
				</g>
				<g>
					<polygon style="fill:#FFA800;" points="416.446,340.27 404.511,299.611 368.249,332.663 358.618,299.85 328.399,327.393 
						325.424,338.017 410.41,361.82 					"/>
				</g>
			</g>
		</g>
		<g>
			<path style="fill:#FE9B88;" d="M429.074,362.266c-5.581,0-11.772-1.007-18.549-3.024c-1.304-0.388-2.046-1.759-1.657-3.062
				c0.387-1.304,1.758-2.048,3.061-1.657c14.212,4.229,25.375,3.701,33.181-1.566c9.427-6.362,11.469-17.888,11.909-22.548
				c0.128-1.354,1.315-2.352,2.683-2.22c1.354,0.128,2.348,1.329,2.22,2.683c-0.506,5.357-2.89,18.63-14.057,26.166
				C442.703,360.522,436.417,362.266,429.074,362.266z"/>
		</g>
		<g>
			<path style="fill:#39ACCC;" d="M459.837,322.645c-0.159,0.134-7.94,17.828-7.942,17.823c1.081,3.175,5.259,4.98,8.444,4.566
				c3.235-0.42,4.673-15.997,5.032-17.303L459.837,322.645z"/>
		</g>
	</g>
	<g>
		<g>
			<path style="fill:#FE8D77;" d="M244.295,200.332c-4.495,0-18.341-2.62-22.19-33.794l4.727-0.584
				c2.718,22.018,10.82,29.711,17.581,29.614c6.849-0.123,12.869-7.723,13.706-17.302l4.744,0.414
				c-1.063,12.174-8.958,21.482-18.365,21.65C244.432,200.331,244.365,200.332,244.295,200.332z"/>
		</g>
		<g>
			<path style="fill:#CF8800;" d="M217.251,166.059c-1.065,4.666,0.488,9.163,2.067,13.681c3.115,0.931,8.423-1.144,9.645-2.684
				c-1.076-2.646-0.362-6.742,0.215-10.339C224.864,165.671,221.675,165.694,217.251,166.059z"/>
		</g>
		<g>
			<path style="fill:#FFA800;" d="M180.525,189.824c0,0,17.33,11.886,29.45,9.906l17.988-29.611
				c3.092-5.711,0.969-12.847-4.742-15.939l-9.26-5.013c-5.711-3.092-12.847-0.969-15.939,4.742L180.525,189.824z"/>
		</g>
		<g>
			<g>
				<path style="fill:#FE8D77;" d="M224.294,141.649l-3.802-2.059l-6.321,11.674c-1.207,2.23-0.378,5.016,1.851,6.223l0,0
					c2.23,1.207,5.016,0.378,6.223-1.851l3.085-5.699L224.294,141.649z"/>
			</g>
			<g>
				<g>
					<path style="fill:#FE8D77;" d="M237.54,144.981l-3.132,5.272c1.181,0.32,2.725-0.026,3.286-1.056l0.576-1.058
						C238.832,147.109,238.45,145.799,237.54,144.981z"/>
				</g>
				<g>
					<path style="fill:#FE9B88;" d="M233.332,152.516l4.587-7.849c2.141-3.98,2.368-6.916-1.132-8.715l-11.035-6.01l-7.283,12.961
						C213.051,152.908,228.002,161.505,233.332,152.516z"/>
				</g>
				<g>
					<g>
						<g>
							<g>
								<g>
									<g>
										<g>
											<g>
												<path style="fill:#082951;" d="M232.69,145.889c-0.236,0.433-0.076,0.976,0.357,1.212
													c0.433,0.236,0.976,0.076,1.212-0.357c0.236-0.433,0.076-0.976-0.357-1.212
													C233.468,145.295,232.926,145.455,232.69,145.889z"/>
											</g>
										</g>
									</g>
								</g>
							</g>
						</g>
						<g>
							<g>
								<g>
									<g>
										<g>
											<path style="fill:#082951;" d="M226.502,142.519c-0.236,0.433-0.076,0.976,0.357,1.212
												c0.433,0.236,0.976,0.076,1.212-0.357c0.236-0.433,0.076-0.976-0.357-1.212
												C227.281,141.926,226.738,142.086,226.502,142.519z"/>
										</g>
									</g>
								</g>
							</g>
						</g>
					</g>
				</g>
				<g>
					<path style="fill:#EFF4DF;" d="M224.421,145.007c-0.826,2.433,0.364,5.261,2.502,6.425c2.138,1.164,4.506,0.274,6.101-1.74
						L224.421,145.007z"/>
				</g>
				<g>
					<path style="fill:#FE8D77;" d="M230.373,147.151c-0.263,0-0.569-0.109-0.924-0.329c-0.145-0.09-0.19-0.281-0.1-0.426
						c0.09-0.145,0.281-0.189,0.426-0.1c0.327,0.202,0.575,0.28,0.695,0.215c0.319-0.165,0.387-1.304,0.452-2.404
						c0.01-0.171,0.165-0.306,0.327-0.291c0.171,0.01,0.301,0.157,0.291,0.327c-0.092,1.56-0.153,2.59-0.785,2.918
						C230.639,147.121,230.512,147.151,230.373,147.151z"/>
				</g>
				<g>
					<path style="fill:#0E3266;" d="M229.359,141.135c-0.046,0-0.093-0.01-0.137-0.032l-1.492-0.734
						c-0.153-0.076-0.217-0.261-0.141-0.415c0.076-0.153,0.264-0.215,0.415-0.141l1.492,0.734c0.153,0.076,0.217,0.261,0.141,0.415
						C229.583,141.071,229.473,141.135,229.359,141.135z"/>
				</g>
				<g>
					<path style="fill:#0E3266;" d="M235.823,144.494c-0.046,0-0.093-0.01-0.137-0.032l-1.492-0.734
						c-0.153-0.076-0.217-0.261-0.141-0.414c0.076-0.154,0.262-0.216,0.415-0.141l1.492,0.734c0.153,0.076,0.217,0.261,0.141,0.415
						C236.047,144.431,235.937,144.494,235.823,144.494z"/>
				</g>
				<g>
					<path style="fill:#0E3266;" d="M228.835,130.42l-3.815,7.284c-0.928,1.695-4.12,3.86-6.29,2.684
						c-1.109-0.601-4.672-1.816-2.58-6.21c0.781-1.64,1.556-2.942,2.655-4.857c1.223-2.131,3.976-2.182,6.135-1.012L228.835,130.42z
						"/>
				</g>
				<g>
					<path style="fill:#FE9B88;" d="M221.757,136.271l1,0.544l-2.991,5.492l-0.999-0.544c-1.455-0.793-2.095-2.428-1.428-3.652
						l0.576-1.058C218.581,135.829,220.302,135.479,221.757,136.271z"/>
				</g>
				<g>
					<path style="fill:#0E3266;" d="M242.159,131.965l-10.878-6.079c-2.369-1.324-5.434-0.746-6.976,1.487
						c-1.238,1.792-1.195,4.021-0.155,5.711c-0.012,0.018-0.027,0.032-0.038,0.051l-3.675,6.238
						c-0.387,0.657-0.095,1.541,0.652,1.976h0c0.747,0.434,1.666,0.254,2.053-0.403l2.537-4.306
						c0.479-0.814,1.521-1.096,2.346-0.635l8.896,4.971c2.423,1.354,5.561,0.708,7.068-1.622
						C245.639,136.8,244.772,133.425,242.159,131.965z"/>
				</g>
			</g>
		</g>
		<g>
			<path style="fill:#FE9B88;" d="M260.856,179.714c-0.649,0-1.299-0.256-1.782-0.764c-0.938-0.984-0.9-2.543,0.084-3.481
				l1.702-1.623c0.984-0.938,2.54-0.904,3.481,0.082c0.939,0.983,0.902,2.542-0.081,3.481l-1.706,1.626
				C262.077,179.489,261.466,179.714,260.856,179.714z"/>
		</g>
		<g>
			<g>
				<polygon style="fill:#D5D1DE;" points="222.066,212.77 249.373,234.895 319.475,148.373 319.416,145.51 292.168,126.248 
					222.007,209.908 				"/>
			</g>
			<g>
				
					<rect x="253.139" y="122.03" transform="matrix(-0.777 -0.6295 0.6295 -0.777 369.1775 486.2048)" style="fill:#FFFFFF;" width="35.145" height="111.357"/>
			</g>
			<g>
				<path style="fill:#0E3266;" d="M305.945,144.301c-1.515,1.87-1.228,4.615,0.643,6.13c1.87,1.515,4.615,1.228,6.13-0.643
					c1.515-1.87,1.228-4.615-0.643-6.13C310.205,142.143,307.461,142.431,305.945,144.301z"/>
			</g>
			<g>
				<path style="fill:#373C7A;" d="M309.322,152.541c-1.254,0-2.461-0.425-3.449-1.226c-1.141-0.924-1.853-2.237-2.006-3.697
					c-0.153-1.46,0.272-2.892,1.195-4.033l0,0c1.908-2.355,5.375-2.719,7.729-0.81c1.141,0.924,1.853,2.237,2.006,3.697
					c0.153,1.46-0.271,2.892-1.195,4.033c-0.924,1.14-2.236,1.853-3.697,2.006C309.71,152.531,309.515,152.541,309.322,152.541z
					 M306.829,145.017c-0.542,0.669-0.791,1.508-0.701,2.364c0.09,0.855,0.507,1.625,1.176,2.167
					c0.669,0.542,1.506,0.789,2.364,0.701c0.855-0.09,1.625-0.507,2.166-1.176c0.542-0.669,0.791-1.508,0.702-2.364
					c-0.09-0.855-0.508-1.625-1.177-2.167C309.981,143.423,307.947,143.638,306.829,145.017L306.829,145.017z"/>
			</g>
			<g>
				<g>
					
						<rect x="272.99" y="147.233" transform="matrix(-0.777 -0.6295 0.6295 -0.777 413.7559 458.9112)" style="fill:#FFA800;" width="30.353" height="17.866"/>
				</g>
				<g>
					<path style="fill:#A3CFD1;" d="M292.258,174.359c-0.13,0-0.261-0.042-0.369-0.13l-14.244-11.542
						c-0.251-0.204-0.29-0.573-0.086-0.825c0.202-0.252,0.573-0.29,0.824-0.086l14.244,11.542c0.251,0.204,0.29,0.573,0.086,0.825
						C292.598,174.285,292.428,174.359,292.258,174.359z"/>
				</g>
			</g>
			<g>
				<g>
					
						<rect x="258.566" y="165.036" transform="matrix(-0.777 -0.6295 0.6295 -0.777 376.9167 481.4663)" style="fill:#8A91E6;" width="30.353" height="17.866"/>
				</g>
				<g>
					<path style="fill:#A3CFD1;" d="M277.834,192.162c-0.13,0-0.261-0.043-0.369-0.13L263.22,180.49
						c-0.251-0.204-0.29-0.573-0.086-0.825c0.202-0.251,0.573-0.289,0.824-0.086l14.245,11.541c0.251,0.204,0.29,0.573,0.086,0.825
						C278.174,192.087,278.004,192.162,277.834,192.162z"/>
				</g>
			</g>
			<g>
				<g>
					
						<rect x="244.141" y="182.839" transform="matrix(-0.777 -0.6295 0.6295 -0.777 340.0792 504.021)" style="fill:#373C7A;" width="30.353" height="17.866"/>
				</g>
				<g>
					<path style="fill:#A3CFD1;" d="M263.409,209.965c-0.13,0-0.261-0.042-0.369-0.13l-14.244-11.542
						c-0.251-0.204-0.29-0.573-0.086-0.825c0.205-0.25,0.572-0.291,0.825-0.087l14.244,11.541c0.251,0.204,0.29,0.573,0.086,0.825
						C263.749,209.891,263.579,209.965,263.409,209.965z"/>
				</g>
			</g>
			<g>
				<g>
					
						<rect x="229.717" y="200.642" transform="matrix(-0.777 -0.6295 0.6295 -0.777 303.2387 526.5765)" style="fill:#39ACCC;" width="30.353" height="17.866"/>
				</g>
				<g>
					<path style="fill:#A3CFD1;" d="M248.985,227.768c-0.129,0-0.26-0.042-0.369-0.13l-14.245-11.541
						c-0.251-0.204-0.29-0.573-0.086-0.825c0.205-0.25,0.572-0.29,0.825-0.086l14.245,11.541c0.251,0.204,0.29,0.573,0.086,0.825
						C249.325,227.693,249.156,227.768,248.985,227.768z"/>
				</g>
			</g>
		</g>
		<g>
			<path style="fill:#FE9B88;" d="M234.064,205.443c-0.182,0-0.366-0.021-0.551-0.063c-15.959-3.645-26.536-10.465-31.436-20.271
				c-6.022-12.052-1.574-24.782,0.618-29.696c0.554-1.241,2.011-1.799,3.252-1.246c1.242,0.554,1.799,2.01,1.246,3.251
				c-1.907,4.275-5.793,15.316-0.71,25.489c4.209,8.425,13.673,14.37,28.127,17.671c1.326,0.303,2.155,1.623,1.852,2.949
				C236.201,204.67,235.187,205.443,234.064,205.443z"/>
		</g>
		<g>
			<path style="fill:#FFA800;" d="M208.554,149.274c0.073,0.195-0.103,20.78-0.1,20.776c-2.502,2.234-9.518,2.87-12.089,0.945
				c-2.611-1.955,4.54-18.697,4.869-20.01L208.554,149.274z"/>
		</g>
	</g>
	<g>
		<g>
			
				<ellipse transform="matrix(0.6753 -0.7375 0.7375 0.6753 -154.7393 248.5743)" style="fill:#4929CF;" cx="204.966" cy="300.043" rx="19.327" ry="23.049"/>
		</g>
		<g>
			<polygon style="fill:#FFA800;" points="261.384,336.888 222.408,279.259 203.755,336.888 			"/>
		</g>
		<g>
			<path style="fill:#8A91E6;" d="M226.073,300.043c-0.828-4.694-3.126-9.028-6.335-12.533l-10.887,33.635
				C220.416,321.057,228.118,311.645,226.073,300.043z"/>
		</g>
		<g>
			<polygon style="fill:#401671;" points="182.13,276.768 180.12,279.208 177.25,276.768 179.26,274.328 			"/>
		</g>
		<g>
			<polygon style="fill:#401671;" points="186.217,299.945 184.207,302.385 181.337,299.945 183.347,297.505 			"/>
		</g>
		<g>
			<polygon style="fill:#401671;" points="190.304,323.123 188.294,325.563 185.424,323.123 187.434,320.683 			"/>
		</g>
		<g>
			<path style="fill:#401671;" d="M187.697,322.486c-0.323,0-0.608-0.231-0.667-0.56l-7.676-43.532
				c-0.065-0.369,0.181-0.72,0.55-0.785c0.363-0.067,0.72,0.181,0.785,0.55l7.676,43.531c0.065,0.369-0.181,0.721-0.55,0.786
				C187.776,322.483,187.736,322.486,187.697,322.486z"/>
		</g>
		<g>
			<g>
				<g>
					<g>
						<polygon style="fill:#4929CF;" points="259.185,285.982 249.945,285.982 248.315,276.742 257.556,276.742 						"/>
					</g>
					<g>
						<polygon style="fill:#FFA800;" points="270.129,285.982 260.889,285.982 259.26,276.742 268.5,276.742 						"/>
					</g>
				</g>
				<g>
					<g>
						<polygon style="fill:#FFA800;" points="261.172,297.249 251.931,297.249 250.302,288.008 259.542,288.008 						"/>
					</g>
					<g>
						<polygon style="fill:#4929CF;" points="272.116,297.249 262.876,297.249 261.246,288.008 270.487,288.008 						"/>
					</g>
				</g>
				<g>
					<g>
						<polygon style="fill:#4929CF;" points="263.158,308.515 253.918,308.515 252.288,299.275 261.529,299.275 						"/>
					</g>
					<g>
						<polygon style="fill:#FFA800;" points="274.103,308.515 264.862,308.515 263.233,299.275 272.473,299.275 						"/>
					</g>
				</g>
			</g>
		</g>
		<g>
			<polygon style="fill:#24004D;" points="276.81,313.899 252.585,313.899 252.005,310.607 276.23,310.607 			"/>
		</g>
	</g>
</g>
<g id="DESIGNED_BY_FREEPIK">
	<g>
		<g id="XMLID_1_">
			<g id="XMLID_20_">
				<g id="XMLID_28_">
					<g>
						<g>
							<g>
								<g>
									<path style="fill:#1D262D;" d="M260.104,465.465c-0.432,0.443-0.803,0.931-1.108,1.453l-0.465-0.241
										c-0.067-0.298-0.349-0.503-0.659-0.466c-0.331,0.039-0.568,0.339-0.529,0.67c0.039,0.331,0.339,0.568,0.67,0.529
										c0.066-0.008,0.127-0.026,0.184-0.052l0.451,0.234c-0.251,0.554-0.433,1.139-0.539,1.744l0.746,0.132
										c0.23-1.306,0.85-2.507,1.792-3.473L260.104,465.465z"/>
								</g>
							</g>
						</g>
					</g>
				</g>
				<g id="XMLID_27_">
					<g>
						<g>
							<g>
								<g>
									<path style="fill:#1D262D;" d="M265.592,463.163c-0.171,0-0.341,0.006-0.51,0.017l-0.074-0.626
										c0.188-0.149,0.296-0.389,0.266-0.645c-0.046-0.393-0.402-0.674-0.795-0.628c-0.393,0.046-0.674,0.402-0.628,0.795
										c0.03,0.254,0.189,0.461,0.404,0.564l0.074,0.624c-0.714,0.116-1.403,0.332-2.06,0.646l0.327,0.684
										c0.934-0.447,1.942-0.673,2.995-0.673c0.496,0,0.993,0.053,1.475,0.158l0.161-0.741
										C266.692,463.222,266.142,463.163,265.592,463.163z"/>
								</g>
							</g>
						</g>
					</g>
				</g>
				<g id="XMLID_26_">
					<g>
						<g>
							<g>
								<g>
									<path style="fill:#1D262D;" d="M272.194,465.711c0.331-0.04,0.566-0.341,0.526-0.672c-0.04-0.331-0.341-0.566-0.672-0.526
										c-0.309,0.038-0.535,0.304-0.53,0.609l-0.416,0.363c-0.418-0.43-0.889-0.813-1.408-1.139l-0.404,0.641
										c1.134,0.715,2.021,1.726,2.563,2.925l0.69-0.313c-0.251-0.554-0.568-1.072-0.942-1.545l0.402-0.351
										C272.065,465.716,272.129,465.719,272.194,465.711z"/>
								</g>
							</g>
						</g>
					</g>
				</g>
				<g id="XMLID_25_">
					<g>
						<g>
							<g>
								<g>
									<path style="fill:#1D262D;" d="M265.044,473.372c-0.386,0.023-0.775,0.035-1.157,0.035c-0.88,0-1.733-0.061-2.478-0.179
										c-0.39-0.062-0.846-0.155-1.27-0.292c1.046,1.861,3.069,3.125,5.388,3.125c2.855,0,5.262-1.916,5.95-4.504
										c-0.682,0.449-1.505,0.825-2.459,1.123C267.839,473.047,266.463,473.286,265.044,473.372z"/>
								</g>
							</g>
						</g>
					</g>
				</g>
				<g id="XMLID_21_">
					<g>
						<g>
							<g>
								<g>
									<path style="fill:#1D262D;" d="M265.592,464.68c-3.352,0-6.08,2.666-6.08,5.943c0,0.426,0.046,0.849,0.137,1.261
										c0.673,0.483,2.706,0.89,5.348,0.731c2.879-0.173,5.297-0.957,6.672-2.159c-0.006-0.195-0.021-0.39-0.045-0.582
										C271.244,466.913,268.65,464.68,265.592,464.68z M263.432,471.194c-1.02,0-1.85-0.83-1.85-1.85c0-1.02,0.83-1.85,1.85-1.85
										c1.02,0,1.85,0.83,1.85,1.85C265.282,470.365,264.452,471.194,263.432,471.194z M268.17,470.286
										c-0.75,0-1.36-0.61-1.36-1.36s0.61-1.361,1.36-1.361c0.75,0,1.361,0.61,1.361,1.361S268.92,470.286,268.17,470.286z"/>
								</g>
							</g>
						</g>
					</g>
				</g>
			</g>
			<g id="XMLID_18_">
				<g>
					<g>
						<g>
							<g>
								<path style="fill:#1D262D;" d="M281.595,466.547c-0.295-0.116-0.805-0.309-1.382-0.237
									c-0.551,0.069-0.844,0.341-0.844,1.007v0.866h2.228v1.717h-2.228v5.455h-1.932v-5.455h-1.34v-1.717h1.34v-0.888
									c0-1.68,0.896-2.783,2.568-2.783c0.643,0,1.157,0.122,1.59,0.308L281.595,466.547z"/>
							</g>
						</g>
					</g>
				</g>
			</g>
			<g id="XMLID_16_">
				<g>
					<g>
						<g>
							<g>
								<path style="fill:#1D262D;" d="M286.298,469.879c-0.177-0.03-0.358-0.046-0.526-0.046c-0.895,0-1.51,0.548-1.51,1.614v3.908
									h-1.932v-7.172h1.873v0.785c0.451-0.673,1.14-0.977,2.021-0.977c0.414,0,0.848,0.128,1.094,0.337L286.298,469.879z"/>
							</g>
						</g>
					</g>
				</g>
			</g>
			<g id="XMLID_13_">
				<g>
					<g>
						<g>
							<g>
								<path style="fill:#1D262D;" d="M293.965,471.757c0,0.222-0.015,0.489-0.037,0.651h-5.085
									c0.207,1.036,0.933,1.488,1.843,1.488c0.622,0,1.295-0.252,1.813-0.688l1.133,1.243c-0.814,0.748-1.85,1.088-3.057,1.088
									c-2.198,0-3.723-1.495-3.723-3.753c0-2.258,1.48-3.797,3.627-3.797C292.544,467.99,293.958,469.522,293.965,471.757z
									 M288.851,471.091h3.175c-0.177-0.918-0.733-1.436-1.562-1.436C289.554,469.655,289.021,470.203,288.851,471.091z"/>
							</g>
						</g>
					</g>
				</g>
			</g>
			<g id="XMLID_10_">
				<g>
					<g>
						<g>
							<g>
								<path style="fill:#1D262D;" d="M301.618,471.757c0,0.222-0.015,0.489-0.037,0.651h-5.085
									c0.207,1.036,0.932,1.488,1.843,1.488c0.622,0,1.295-0.252,1.814-0.688l1.132,1.243c-0.814,0.748-1.85,1.088-3.057,1.088
									c-2.198,0-3.723-1.495-3.723-3.753c0-2.258,1.48-3.797,3.627-3.797C300.197,467.99,301.611,469.522,301.618,471.757z
									 M296.504,471.091h3.175c-0.178-0.918-0.733-1.436-1.562-1.436C297.207,469.655,296.674,470.203,296.504,471.091z"/>
							</g>
						</g>
					</g>
				</g>
			</g>
			<g id="XMLID_7_">
				<g>
					<g>
						<g>
							<g>
								<path style="fill:#1D262D;" d="M309.964,471.764c0,2.154-1.495,3.775-3.471,3.775c-0.962,0-1.643-0.378-2.109-0.933v3.708
									h-1.924v-10.133h1.887v0.792c0.466-0.585,1.155-0.984,2.139-0.984C308.469,467.99,309.964,469.61,309.964,471.764z
									 M304.287,471.764c0,1.132,0.747,1.976,1.843,1.976c1.14,0,1.85-0.881,1.85-1.976c0-1.095-0.711-1.976-1.85-1.976
									C305.035,469.788,304.287,470.632,304.287,471.764z"/>
							</g>
						</g>
					</g>
				</g>
			</g>
			<g id="XMLID_4_">
				<g>
					<g>
						<g>
							<g>
								<path style="fill:#1D262D;" d="M313.067,465.836c0,0.696-0.54,1.229-1.236,1.229c-0.696,0-1.229-0.533-1.229-1.229
									c0-0.696,0.533-1.243,1.229-1.243C312.527,464.592,313.067,465.14,313.067,465.836z M312.809,475.354h-1.932v-7.172h1.932
									V475.354z"/>
							</g>
						</g>
					</g>
				</g>
			</g>
			<g id="XMLID_2_">
				<g>
					<g>
						<g>
							<g>
								<path style="fill:#1D262D;" d="M316.032,470.736l2.702-2.554h2.368l-3.479,3.375l3.501,3.797h-2.376l-2.716-2.901v2.901
									H314.1v-10.658h1.932V470.736z"/>
							</g>
						</g>
					</g>
				</g>
			</g>
		</g>
		<g>
			<g>
				<g>
					<g>
						<g>
							<g>
								<path style="fill:#1D262D;" d="M184.412,475.289v-1.055c-0.527,0.718-1.391,1.23-2.387,1.23
									c-1.846,0-3.149-1.406-3.149-3.706c0-2.256,1.289-3.721,3.149-3.721c0.952,0,1.816,0.469,2.387,1.245v-3.765h1.099v9.77
									H184.412z M184.412,473.37v-3.208c-0.395-0.615-1.245-1.143-2.124-1.143c-1.421,0-2.27,1.172-2.27,2.739
									c0,1.567,0.85,2.724,2.27,2.724C183.168,474.483,184.017,473.986,184.412,473.37z"/>
							</g>
						</g>
					</g>
				</g>
			</g>
			<g>
				<g>
					<g>
						<g>
							<g>
								<path style="fill:#1D262D;" d="M186.932,471.744c0-2.051,1.465-3.706,3.486-3.706c2.139,0,3.398,1.67,3.398,3.794v0.279
									h-5.727c0.088,1.333,1.025,2.446,2.549,2.446c0.805,0,1.626-0.322,2.182-0.894l0.527,0.718
									c-0.703,0.703-1.655,1.084-2.812,1.084C188.44,475.465,186.932,473.956,186.932,471.744z M190.403,468.947
									c-1.509,0-2.256,1.274-2.314,2.358h4.643C192.718,470.25,192.015,468.947,190.403,468.947z"/>
							</g>
						</g>
					</g>
				</g>
			</g>
			<g>
				<g>
					<g>
						<g>
							<g>
								<path style="fill:#1D262D;" d="M194.607,474.351l0.571-0.791c0.469,0.542,1.362,1.011,2.329,1.011
									c1.084,0,1.67-0.513,1.67-1.216c0-1.714-4.38-0.659-4.38-3.281c0-1.098,0.952-2.036,2.636-2.036
									c1.201,0,2.051,0.454,2.622,1.026l-0.513,0.762c-0.424-0.513-1.201-0.894-2.109-0.894c-0.967,0-1.567,0.483-1.567,1.113
									c0,1.552,4.38,0.527,4.38,3.281c0,1.187-0.952,2.138-2.783,2.138C196.306,475.465,195.325,475.113,194.607,474.351z"/>
							</g>
						</g>
					</g>
				</g>
			</g>
			<g>
				<g>
					<g>
						<g>
							<g>
								<path style="fill:#1D262D;" d="M201.477,466.471c0-0.41,0.337-0.747,0.732-0.747c0.41,0,0.747,0.337,0.747,0.747
									c0,0.41-0.337,0.732-0.747,0.732C201.814,467.203,201.477,466.881,201.477,466.471z M201.667,475.289v-7.075h1.099v7.075
									H201.667z"/>
							</g>
						</g>
					</g>
				</g>
			</g>
			<g>
				<g>
					<g>
						<g>
							<g>
								<path style="fill:#1D262D;" d="M204.582,477.105l0.556-0.82c0.586,0.703,1.289,0.967,2.3,0.967
									c1.172,0,2.27-0.571,2.27-2.124v-1.011c-0.513,0.718-1.377,1.26-2.373,1.26c-1.845,0-3.149-1.377-3.149-3.662
									c0-2.27,1.289-3.677,3.149-3.677c0.952,0,1.802,0.469,2.373,1.245v-1.069h1.098v6.87c0,2.344-1.641,3.076-3.369,3.076
									C206.237,478.16,205.417,477.926,204.582,477.105z M209.709,473.253v-3.091c-0.381-0.615-1.23-1.143-2.109-1.143
									c-1.421,0-2.27,1.128-2.27,2.695c0,1.553,0.849,2.695,2.27,2.695C208.478,474.41,209.328,473.868,209.709,473.253z"/>
							</g>
						</g>
					</g>
				</g>
			</g>
			<g>
				<g>
					<g>
						<g>
							<g>
								<path style="fill:#1D262D;" d="M217.413,475.289v-4.629c0-1.245-0.63-1.641-1.582-1.641c-0.865,0-1.685,0.527-2.095,1.099
									v5.17h-1.099v-7.075h1.099v1.025c0.498-0.586,1.465-1.201,2.519-1.201c1.48,0,2.256,0.747,2.256,2.285v4.966H217.413z"/>
							</g>
						</g>
					</g>
				</g>
			</g>
			<g>
				<g>
					<g>
						<g>
							<g>
								<path style="fill:#1D262D;" d="M219.932,471.744c0-2.051,1.465-3.706,3.486-3.706c2.139,0,3.398,1.67,3.398,3.794v0.279
									h-5.727c0.088,1.333,1.025,2.446,2.549,2.446c0.806,0,1.626-0.322,2.183-0.894l0.527,0.718
									c-0.703,0.703-1.655,1.084-2.812,1.084C221.441,475.465,219.932,473.956,219.932,471.744z M223.404,468.947
									c-1.509,0-2.256,1.274-2.314,2.358h4.643C225.718,470.25,225.015,468.947,223.404,468.947z"/>
							</g>
						</g>
					</g>
				</g>
			</g>
			<g>
				<g>
					<g>
						<g>
							<g>
								<path style="fill:#1D262D;" d="M233.35,475.289v-1.055c-0.527,0.718-1.392,1.23-2.388,1.23
									c-1.846,0-3.149-1.406-3.149-3.706c0-2.256,1.289-3.721,3.149-3.721c0.952,0,1.817,0.469,2.388,1.245v-3.765h1.098v9.77
									H233.35z M233.35,473.37v-3.208c-0.396-0.615-1.245-1.143-2.124-1.143c-1.421,0-2.27,1.172-2.27,2.739
									c0,1.567,0.849,2.724,2.27,2.724C232.105,474.483,232.954,473.986,233.35,473.37z"/>
							</g>
						</g>
					</g>
				</g>
			</g>
			<g>
				<g>
					<g>
						<g>
							<g>
								<path style="fill:#1D262D;" d="M239.692,475.289v-9.77h1.098v3.765c0.572-0.776,1.421-1.245,2.388-1.245
									c1.845,0,3.149,1.465,3.149,3.721c0,2.299-1.304,3.706-3.149,3.706c-0.996,0-1.86-0.513-2.388-1.23v1.055H239.692z
									 M242.9,474.483c1.436,0,2.285-1.157,2.285-2.724c0-1.568-0.85-2.739-2.285-2.739c-0.864,0-1.728,0.527-2.109,1.143v3.208
									C241.171,473.986,242.036,474.483,242.9,474.483z"/>
							</g>
						</g>
					</g>
				</g>
			</g>
			<g>
				<g>
					<g>
						<g>
							<g>
								<path style="fill:#1D262D;" d="M247.528,477.061c0.161,0.073,0.425,0.117,0.601,0.117c0.483,0,0.805-0.161,1.055-0.747
									l0.469-1.069l-2.959-7.148h1.187l2.358,5.8l2.344-5.8h1.201l-3.545,8.51c-0.425,1.025-1.143,1.421-2.08,1.435
									c-0.234,0-0.601-0.044-0.806-0.103L247.528,477.061z"/>
							</g>
						</g>
					</g>
				</g>
			</g>
		</g>
	</g>
</g>
</svg>
